<svg xmlns="http://www.w3.org/2000/svg" xmlns:xlink="http://www.w3.org/1999/xlink" xmlns:lucid="lucid" width="1760"
     height="1360">
    <g transform="translate(0 0)" lucid:page-tab-id="0_0">
        <path d="M0 0h1760v1360H0z" fill="#fff"/>
        <path d="M820 250c0 11.05-8.95 20-20 20s-20-8.95-20-20 8.95-20 20-20 20 8.95 20 20z" stroke="#666"/>
        <path d="M800 271v52.25c0 6.63 5.37 12 12 12h176c6.63 0 12 5.37 12 12v36.37" stroke="#333" fill="none"/>
        <path d="M799.98 270.5l.52-.02v.53h-1v-.56" fill="#333"/>
        <path d="M1000 398.38l-4.64-14.26h9.28z" stroke="#333" fill="#333"/>
        <path d="M920 400c-11.05 0-20 8.95-20 20v60c0 11.05 8.95 20 20 20h160c11.05 0 20-8.95 20-20v-60c0-11.05-8.95-20-20-20z"
              stroke="#000" stroke-opacity="0" fill="#00b098"/>
        <use xlink:href="#a" transform="matrix(1,0,0,1,908,408) translate(73.72839506172839 36.48888888888889)"/>
        <use xlink:href="#b" transform="matrix(1,0,0,1,908,408) translate(62.419753086419746 57.822222222222216)"/>
        <path d="M453.15 76c0-4.42 3.58-8 8-8h836.75c4.4 0 8 3.58 8 8v25.16c0 4.4-3.6 8-8 8H461.15c-4.42 0-8-3.6-8-8z"
              stroke="#000" stroke-opacity="0" stroke-width="2" fill="#fff" fill-opacity="0"/>
        <use xlink:href="#c"
             transform="matrix(1,0,0,1,457.14655278534315,71.99999999994924) translate(399.17296296296297 21.87166666666667)"/>
        <path d="M725.65 107.8h317.57M725.68 107.8h-1.03M1043.2 107.8h1.02" stroke="#a9afb8" stroke-width="2"
              fill="none"/>
        <path d="M453.15 117.16c0-4.42 3.58-8 8-8h837.7c4.42 0 8 3.58 8 8V120c0 4.42-3.58 8-8 8h-837.7c-4.42 0-8-3.58-8-8z"
              stroke="#000" stroke-opacity="0" stroke-width="2" fill="#fff" fill-opacity="0"/>
        <use xlink:href="#d"
             transform="matrix(1,0,0,1,457.1465527853436,113.15522395684805) translate(339.8221913580247 14.917037037037037)"/>
        <use xlink:href="#e"
             transform="matrix(1,0,0,1,457.1465527853436,113.15522395684805) translate(382.2694135802469 14.917037037037037)"/>
        <use xlink:href="#f"
             transform="matrix(1,0,0,1,457.1465527853436,113.15522395684805) translate(394.7188991769548 14.917037037037037)"/>
        <use xlink:href="#g"
             transform="matrix(1,0,0,1,457.1465527853436,113.15522395684805) translate(453.3122119341564 14.917037037037037)"/>
        <use xlink:href="#h"
             transform="matrix(1,0,0,1,457.1465527853436,113.15522395684805) translate(478.8060390946502 14.917037037037037)"/>
        <path d="M1100.5 450h83.12" stroke="#333" fill="none"/>
        <path d="M1100.5 450.5h-.5v-1h.5" fill="#333"/>
        <path d="M1198.38 450l-14.26 4.64v-9.28z" stroke="#333" fill="#333"/>
        <path d="M1216 410c-8.84 0-16 7.16-16 16v48c0 8.84 7.16 16 16 16h168c8.84 0 16-7.16 16-16v-48c0-8.84-7.16-16-16-16z"
              stroke="#000" stroke-opacity="0" fill="#77e5d7"/>
        <use xlink:href="#i" transform="matrix(1,0,0,1,1208,418) translate(58.525 35.6)"/>
        <use xlink:href="#j" transform="matrix(1,0,0,1,1208,418) translate(100.525 35.6)"/>
        <path d="M1000 500.5v83.12" stroke="#333" fill="none"/>
        <path d="M1000.5 500.5h-1v-.5h1" fill="#333"/>
        <path d="M1000 598.38l-4.64-14.26h9.28z" stroke="#333" fill="#333"/>
        <path d="M920 600c-11.05 0-20 8.95-20 20v60c0 11.05 8.95 20 20 20h160c11.05 0 20-8.95 20-20v-60c0-11.05-8.95-20-20-20z"
              stroke="#000" stroke-opacity="0" fill="#00c2a8"/>
        <use xlink:href="#k" transform="matrix(1,0,0,1,908,608) translate(47.05 34.8)"/>
        <use xlink:href="#l" transform="matrix(1,0,0,1,908,608) translate(62.05 56.4)"/>
        <path d="M1100.5 650h83.12" stroke="#333" fill="none"/>
        <path d="M1100.5 650.5h-.5v-1h.5" fill="#333"/>
        <path d="M1198.38 650l-14.26 4.64v-9.28z" stroke="#333" fill="#333"/>
        <path d="M1216 610c-8.84 0-16 7.16-16 16v48c0 8.84 7.16 16 16 16h168c8.84 0 16-7.16 16-16v-48c0-8.84-7.16-16-16-16z"
              stroke="#000" stroke-opacity="0" fill="#77e5d7"/>
        <use xlink:href="#m" transform="matrix(1,0,0,1,1208,618) translate(32.074999999999996 35.6)"/>
        <use xlink:href="#j" transform="matrix(1,0,0,1,1208,618) translate(126.975 35.6)"/>
        <path d="M840 208c0-4.42 3.58-8 8-8h244c4.42 0 8 3.58 8 8v84c0 4.42-3.58 8-8 8H848c-4.42 0-8-3.58-8-8z"
              stroke="#333" fill="#fff"/>
        <use xlink:href="#n" transform="matrix(1,0,0,1,845,205) translate(55.32499999999999 36.9)"/>
        <use xlink:href="#o" transform="matrix(1,0,0,1,845,205) translate(106.82499999999999 36.9)"/>
        <use xlink:href="#p" transform="matrix(1,0,0,1,845,205) translate(140.825 36.9)"/>
        <use xlink:href="#q" transform="matrix(1,0,0,1,845,205) translate(81.725 58.5)"/>
        <path d="M700 808c0-4.42 3.58-8 8-8h284c4.42 0 8 3.58 8 8v184c0 4.42-3.58 8-8 8H708c-4.42 0-8-3.58-8-8z"
              stroke="#333" fill="#fff"/>
        <use xlink:href="#r" transform="matrix(1,0,0,1,705,805) translate(60.07499999999999 97.525)"/>
        <use xlink:href="#s" transform="matrix(1,0,0,1,705,805) translate(154.02499999999998 97.525)"/>
        <path d="M620 600c-11.05 0-20 8.95-20 20v60c0 11.05 8.95 20 20 20h160c11.05 0 20-8.95 20-20v-60c0-11.05-8.95-20-20-20z"
              stroke="#000" stroke-opacity="0" fill="#00c2a8"/>
        <use xlink:href="#t" transform="matrix(1,0,0,1,608,608) translate(47.525 34.8)"/>
        <use xlink:href="#l" transform="matrix(1,0,0,1,608,608) translate(62.05 56.4)"/>
        <path d="M620 401.92c-11.05 0-20 8.96-20 20v60c0 11.05 8.95 20 20 20h160c11.05 0 20-8.95 20-20v-60c0-11.04-8.95-20-20-20z"
              stroke="#000" stroke-opacity="0" fill="#00c2a8"/>
        <use xlink:href="#u" transform="matrix(1,0,0,1,608,409.9218161249853) translate(56.05 34.8)"/>
        <use xlink:href="#l" transform="matrix(1,0,0,1,608,409.9218161249853) translate(62.05 56.4)"/>
        <path d="M800.5 650h8.55c6.62 0 12 5.37 12 12v121.12" stroke="#333" fill="none"/>
        <path d="M800.5 650.5h-.5v-1h.5" fill="#333"/>
        <path d="M821.05 797.88l-4.64-14.26h9.28z" stroke="#333" fill="#333"/>
        <path d="M800.5 451.92H838c6.63 0 12 5.37 12 12v319.2" stroke="#333" fill="none"/>
        <path d="M800.5 452.42h-.5v-1h.5" fill="#333"/>
        <path d="M850 797.88l-4.64-14.26h9.28z" stroke="#333" fill="#333"/>
        <path d="M1000 700.5v37.25c0 6.63-5.37 12-12 12h-34.78c-6.63 0-12 5.37-12 12v21.37" stroke="#333" fill="none"/>
        <path d="M1000.5 700.5h-1v-.5h1" fill="#333"/>
        <path d="M941.22 797.88l-4.64-14.26h9.28z" stroke="#333" fill="#333"/>
        <path d="M599.5 650h-83.12" stroke="#333" fill="none"/>
        <path d="M600 650.5h-.5v-1h.5" fill="#333"/>
        <path d="M501.62 650l14.26-4.64v9.28z" stroke="#333" fill="#333"/>
        <path d="M316 610c-8.84 0-16 7.16-16 16v48c0 8.84 7.16 16 16 16h168c8.84 0 16-7.16 16-16v-48c0-8.84-7.16-16-16-16z"
              stroke="#000" stroke-opacity="0" fill="#77e5d7"/>
        <g>
            <use xlink:href="#t" transform="matrix(1,0,0,1,308,618) translate(47.525 24.799999999999997)"/>
            <use xlink:href="#v" transform="matrix(1,0,0,1,308,618) translate(79.525 46.4)"/>
        </g>
        <defs>
            <path fill="#fff" d="M187 0l-14-72H61L19 0h-37l149-248h38L221 0h-34zm-19-99l-22-123L76-99h92" id="w"/>
            <path fill="#fff"
                  d="M67 3c-93-2-31-127-26-193h32L48-50c-3 39 53 32 70 12 30-34 30-101 43-152h32L157 0h-30c1-10 6-24 4-33-14 20-29 37-64 36"
                  id="x"/>
            <path fill="#fff"
                  d="M51-54c-9 22 5 41 31 30L79-1C43 14 10-4 19-52l22-115H19l5-23h22l19-43h21l-9 43h35l-4 23H73"
                  id="y"/>
            <path fill="#fff"
                  d="M67-158c15-20 31-36 64-36 94 0 33 127 27 194h-32l25-140c3-38-53-32-70-12C52-117 51-51 37 0H6l51-261h31"
                  id="z"/>
            <g id="a">
                <use transform="matrix(0.04938271604938272,0,0,0.04938271604938272,0,0)" xlink:href="#w"/>
                <use transform="matrix(0.04938271604938272,0,0,0.04938271604938272,11.851851851851853,0)"
                     xlink:href="#x"/>
                <use transform="matrix(0.04938271604938272,0,0,0.04938271604938272,21.7283950617284,0)"
                     xlink:href="#y"/>
                <use transform="matrix(0.04938271604938272,0,0,0.04938271604938272,26.666666666666668,0)"
                     xlink:href="#z"/>
            </g>
            <path fill="#fff"
                  d="M194-120c59 52 2 134-86 124-53-6-90-18-98-63l31-7c8 30 29 43 70 43 46 0 84-17 71-62-32-43-135-20-137-98-3-89 178-90 191-16l-30 9c-8-48-127-53-127 5 0 53 81 35 115 65"
                  id="A"/>
            <path fill="#fff"
                  d="M111-194c62-3 86 47 72 106H45c-7 38 6 69 45 68 27-1 43-14 53-32l24 11C152-15 129 4 87 4 38 3 12-23 12-71c0-70 32-119 99-123zm44 81c14-66-71-72-95-28-4 8-8 17-11 28h106"
                  id="B"/>
            <path fill="#fff" d="M66-151c12-25 30-51 66-40l-6 26C45-176 58-65 38 0H6l36-190h30" id="C"/>
            <path fill="#fff" d="M89 0H52L20-190h33L74-25l89-165h34" id="D"/>
            <path fill="#fff" d="M50-231l6-30h32l-6 30H50zM6 0l37-190h31L37 0H6" id="E"/>
            <path fill="#fff"
                  d="M44-68c0 29 11 47 38 47 30 0 42-19 51-41l28 9C148-21 126 4 82 4 31 4 10-29 12-85c3-77 74-140 146-93 12 8 15 23 18 40l-31 5c-1-22-13-36-36-36-52 0-65 49-65 101"
                  id="F"/>
            <g id="b">
                <use transform="matrix(0.04938271604938272,0,0,0.04938271604938272,0,0)" xlink:href="#A"/>
                <use transform="matrix(0.04938271604938272,0,0,0.04938271604938272,11.851851851851853,0)"
                     xlink:href="#B"/>
                <use transform="matrix(0.04938271604938272,0,0,0.04938271604938272,21.7283950617284,0)"
                     xlink:href="#C"/>
                <use transform="matrix(0.04938271604938272,0,0,0.04938271604938272,27.604938271604947,0)"
                     xlink:href="#D"/>
                <use transform="matrix(0.04938271604938272,0,0,0.04938271604938272,36.49382716049384,0)"
                     xlink:href="#E"/>
                <use transform="matrix(0.04938271604938272,0,0,0.04938271604938272,40.39506172839507,0)"
                     xlink:href="#F"/>
                <use transform="matrix(0.04938271604938272,0,0,0.04938271604938272,49.28395061728396,0)"
                     xlink:href="#B"/>
            </g>
            <path d="M141-36C126-15 110 5 73 4 37 3 15-17 15-53c-1-64 63-63 125-63 3-35-9-54-41-54-24 1-41 7-42 31l-33-3c5-37 33-52 76-52 45 0 72 20 72 64v82c-1 20 7 32 28 27v20c-31 9-61-2-59-35zM48-53c0 20 12 33 32 33 41-3 63-29 60-74-43 2-92-5-92 41"
                  id="G"/>
            <path d="M127-220V0H93v-220H8v-28h204v28h-85" id="H"/>
            <path d="M30 0v-248h187v28H63v79h144v27H63v87h162V0H30" id="I"/>
            <path d="M185-189c-5-48-123-54-124 2 14 75 158 14 163 119 3 78-121 87-175 55-17-10-28-26-33-46l33-7c5 56 141 63 141-1 0-78-155-14-162-118-5-82 145-84 179-34 5 7 8 16 11 25"
                  id="J"/>
            <g id="c">
                <use transform="matrix(0.05925925925925927,0,0,0.05925925925925927,0,0)" xlink:href="#G"/>
                <use transform="matrix(0.05925925925925927,0,0,0.05925925925925927,11.851851851851853,0)"
                     xlink:href="#H"/>
                <use transform="matrix(0.05925925925925927,0,0,0.05925925925925927,24.829629629629633,0)"
                     xlink:href="#I"/>
                <use transform="matrix(0.05925925925925927,0,0,0.05925925925925927,39.05185185185186,0)"
                     xlink:href="#J"/>
            </g>
            <path fill="#a9afb8"
                  d="M177-190C167-65 218 103 67 71c-23-6-38-20-44-43l32-5c15 47 100 32 89-28v-30C133-14 115 1 83 1 29 1 15-40 15-95c0-56 16-97 71-98 29-1 48 16 59 35 1-10 0-23 2-32h30zM94-22c36 0 50-32 50-73 0-42-14-75-50-75-39 0-46 34-46 75s6 73 46 73"
                  id="K"/>
            <path fill="#a9afb8" d="M59-47c-2 24 18 29 38 22v24C64 9 27 4 27-40v-127H5v-23h24l9-43h21v43h35v23H59v120"
                  id="L"/>
            <path fill="#a9afb8" d="M114-163C36-179 61-72 57 0H25l-1-190h30c1 12-1 29 2 39 6-27 23-49 58-41v29" id="M"/>
            <path fill="#a9afb8"
                  d="M135-143c-3-34-86-38-87 0 15 53 115 12 119 90S17 21 10-45l28-5c4 36 97 45 98 0-10-56-113-15-118-90-4-57 82-63 122-42 12 7 21 19 24 35"
                  id="N"/>
            <path fill="#a9afb8"
                  d="M106-169C34-169 62-67 57 0H25v-261h32l-1 103c12-21 28-36 61-36 89 0 53 116 60 194h-32v-121c2-32-8-49-39-48"
                  id="O"/>
            <g id="d">
                <use transform="matrix(0.04248971193415638,0,0,0.04248971193415638,0,0)" xlink:href="#K"/>
                <use transform="matrix(0.04248971193415638,0,0,0.04248971193415638,8.497942386831275,0)"
                     xlink:href="#L"/>
                <use transform="matrix(0.04248971193415638,0,0,0.04248971193415638,12.746913580246911,0)"
                     xlink:href="#M"/>
                <use transform="matrix(0.04248971193415638,0,0,0.04248971193415638,17.80318930041152,0)"
                     xlink:href="#N"/>
                <use transform="matrix(0.04248971193415638,0,0,0.04248971193415638,25.45133744855967,0)"
                     xlink:href="#O"/>
            </g>
            <path fill="#a9afb8" d="M32 76v-337h29V76H32" id="P"/>
            <use transform="matrix(0.04248971193415638,0,0,0.04248971193415638,0,0)" xlink:href="#P" id="e"/>
            <path fill="#a9afb8"
                  d="M140-251c81 0 123 46 123 126C263-46 219 4 140 4 59 4 17-45 17-125s42-126 123-126zm0 227c63 0 89-41 89-101s-29-99-89-99c-61 0-89 39-89 99S79-25 140-24"
                  id="Q"/>
            <path fill="#a9afb8"
                  d="M96-169c-40 0-48 33-48 73s9 75 48 75c24 0 41-14 43-38l32 2c-6 37-31 61-74 61-59 0-76-41-82-99-10-93 101-131 147-64 4 7 5 14 7 22l-32 3c-4-21-16-35-41-35"
                  id="R"/>
            <path fill="#a9afb8"
                  d="M100-194c62-1 85 37 85 99 1 63-27 99-86 99S16-35 15-95c0-66 28-99 85-99zM99-20c44 1 53-31 53-75 0-43-8-75-51-75s-53 32-53 75 10 74 51 75"
                  id="S"/>
            <path fill="#a9afb8"
                  d="M115-194c53 0 69 39 70 98 0 66-23 100-70 100C84 3 66-7 56-30L54 0H23l1-261h32v101c10-23 28-34 59-34zm-8 174c40 0 45-34 45-75 0-40-5-75-45-74-42 0-51 32-51 76 0 43 10 73 51 73"
                  id="T"/>
            <path fill="#a9afb8"
                  d="M100-194c63 0 86 42 84 106H49c0 40 14 67 53 68 26 1 43-12 49-29l28 8c-11 28-37 45-77 45C44 4 14-33 15-96c1-61 26-98 85-98zm52 81c6-60-76-77-97-28-3 7-6 17-6 28h103"
                  id="U"/>
            <g id="f">
                <use transform="matrix(0.04248971193415638,0,0,0.04248971193415638,0,0)" xlink:href="#Q"/>
                <use transform="matrix(0.04248971193415638,0,0,0.04248971193415638,11.897119341563785,0)"
                     xlink:href="#R"/>
                <use transform="matrix(0.04248971193415638,0,0,0.04248971193415638,19.545267489711932,0)"
                     xlink:href="#L"/>
                <use transform="matrix(0.04248971193415638,0,0,0.04248971193415638,23.79423868312757,0)"
                     xlink:href="#S"/>
                <use transform="matrix(0.04248971193415638,0,0,0.04248971193415638,32.29218106995884,0)"
                     xlink:href="#T"/>
                <use transform="matrix(0.04248971193415638,0,0,0.04248971193415638,40.79012345679012,0)"
                     xlink:href="#U"/>
                <use transform="matrix(0.04248971193415638,0,0,0.04248971193415638,49.288065843621396,0)"
                     xlink:href="#M"/>
            </g>
            <path fill="#a9afb8"
                  d="M101-251c82-7 93 87 43 132L82-64C71-53 59-42 53-27h129V0H18c2-99 128-94 128-182 0-28-16-43-45-43s-46 15-49 41l-32-3c6-41 34-60 81-64"
                  id="V"/>
            <path fill="#a9afb8"
                  d="M101-251c68 0 85 55 85 127S166 4 100 4C33 4 14-52 14-124c0-73 17-127 87-127zm-1 229c47 0 54-49 54-102s-4-102-53-102c-51 0-55 48-55 102 0 53 5 102 54 102"
                  id="W"/>
            <path fill="#a9afb8" d="M68-38c1 34 0 65-14 84H32c9-13 17-26 17-46H33v-38h35" id="X"/>
            <g id="g">
                <use transform="matrix(0.04248971193415638,0,0,0.04248971193415638,0,0)" xlink:href="#V"/>
                <use transform="matrix(0.04248971193415638,0,0,0.04248971193415638,8.497942386831275,0)"
                     xlink:href="#W"/>
                <use transform="matrix(0.04248971193415638,0,0,0.04248971193415638,16.99588477366255,0)"
                     xlink:href="#X"/>
            </g>
            <path fill="#a9afb8" d="M27 0v-27h64v-190l-56 39v-29l58-41h29v221h61V0H27" id="Y"/>
            <g id="h">
                <use transform="matrix(0.04248971193415638,0,0,0.04248971193415638,0,0)" xlink:href="#V"/>
                <use transform="matrix(0.04248971193415638,0,0,0.04248971193415638,8.497942386831275,0)"
                     xlink:href="#W"/>
                <use transform="matrix(0.04248971193415638,0,0,0.04248971193415638,16.99588477366255,0)"
                     xlink:href="#V"/>
                <use transform="matrix(0.04248971193415638,0,0,0.04248971193415638,25.493827160493822,0)"
                     xlink:href="#Y"/>
            </g>
            <path fill="#333" d="M205 0l-28-72H64L36 0H1l101-248h38L239 0h-34zm-38-99l-47-123c-12 45-31 82-46 123h93"
                  id="Z"/>
            <path fill="#333"
                  d="M84 4C-5 8 30-112 23-190h32v120c0 31 7 50 39 49 72-2 45-101 50-169h31l1 190h-30c-1-10 1-25-2-33-11 22-28 36-60 37"
                  id="aa"/>
            <path fill="#333" d="M59-47c-2 24 18 29 38 22v24C64 9 27 4 27-40v-127H5v-23h24l9-43h21v43h35v23H59v120"
                  id="ab"/>
            <path fill="#333"
                  d="M106-169C34-169 62-67 57 0H25v-261h32l-1 103c12-21 28-36 61-36 89 0 53 116 60 194h-32v-121c2-32-8-49-39-48"
                  id="ac"/>
            <g id="i">
                <use transform="matrix(0.05,0,0,0.05,0,0)" xlink:href="#Z"/>
                <use transform="matrix(0.05,0,0,0.05,12,0)" xlink:href="#aa"/>
                <use transform="matrix(0.05,0,0,0.05,22,0)" xlink:href="#ab"/>
                <use transform="matrix(0.05,0,0,0.05,27,0)" xlink:href="#ac"/>
            </g>
            <path fill="#333"
                  d="M30-248c118-7 216 8 213 122C240-48 200 0 122 0H30v-248zM63-27c89 8 146-16 146-99s-60-101-146-95v194"
                  id="ad"/>
            <path fill="#333"
                  d="M160-131c35 5 61 23 61 61C221 17 115-2 30 0v-248c76 3 177-17 177 60 0 33-19 50-47 57zm-97-11c50-1 110 9 110-42 0-47-63-36-110-37v79zm0 115c55-2 124 14 124-45 0-56-70-42-124-44v89"
                  id="ae"/>
            <g id="j">
                <use transform="matrix(0.05,0,0,0.05,0,0)" xlink:href="#ad"/>
                <use transform="matrix(0.05,0,0,0.05,12.950000000000001,0)" xlink:href="#ae"/>
            </g>
            <path fill="#333"
                  d="M141-36C126-15 110 5 73 4 37 3 15-17 15-53c-1-64 63-63 125-63 3-35-9-54-41-54-24 1-41 7-42 31l-33-3c5-37 33-52 76-52 45 0 72 20 72 64v82c-1 20 7 32 28 27v20c-31 9-61-2-59-35zM48-53c0 20 12 33 32 33 41-3 63-29 60-74-43 2-92-5-92 41"
                  id="af"/>
            <path fill="#333"
                  d="M135-143c-3-34-86-38-87 0 15 53 115 12 119 90S17 21 10-45l28-5c4 36 97 45 98 0-10-56-113-15-118-90-4-57 82-63 122-42 12 7 21 19 24 35"
                  id="ag"/>
            <path fill="#333"
                  d="M100-194c62-1 85 37 85 99 1 63-27 99-86 99S16-35 15-95c0-66 28-99 85-99zM99-20c44 1 53-31 53-75 0-43-8-75-51-75s-53 32-53 75 10 74 51 75"
                  id="ah"/>
            <path fill="#333" d="M114-163C36-179 61-72 57 0H25l-1-190h30c1 12-1 29 2 39 6-27 23-49 58-41v29" id="ai"/>
            <path fill="#333"
                  d="M85-194c31 0 48 13 60 33l-1-100h32l1 261h-30c-2-10 0-23-3-31C134-8 116 4 85 4 32 4 16-35 15-94c0-66 23-100 70-100zm9 24c-40 0-46 34-46 75 0 40 6 74 45 74 42 0 51-32 51-76 0-42-9-74-50-73"
                  id="aj"/>
            <g id="k">
                <use transform="matrix(0.05,0,0,0.05,0,0)" xlink:href="#ad"/>
                <use transform="matrix(0.05,0,0,0.05,12.950000000000001,0)" xlink:href="#af"/>
                <use transform="matrix(0.05,0,0,0.05,22.950000000000003,0)" xlink:href="#ag"/>
                <use transform="matrix(0.05,0,0,0.05,31.950000000000003,0)" xlink:href="#ac"/>
                <use transform="matrix(0.05,0,0,0.05,41.95,0)" xlink:href="#ae"/>
                <use transform="matrix(0.05,0,0,0.05,53.95,0)" xlink:href="#ah"/>
                <use transform="matrix(0.05,0,0,0.05,63.95,0)" xlink:href="#af"/>
                <use transform="matrix(0.05,0,0,0.05,73.95,0)" xlink:href="#ai"/>
                <use transform="matrix(0.05,0,0,0.05,79.9,0)" xlink:href="#aj"/>
            </g>
            <path fill="#333"
                  d="M185-189c-5-48-123-54-124 2 14 75 158 14 163 119 3 78-121 87-175 55-17-10-28-26-33-46l33-7c5 56 141 63 141-1 0-78-155-14-162-118-5-82 145-84 179-34 5 7 8 16 11 25"
                  id="ak"/>
            <path fill="#333"
                  d="M100-194c63 0 86 42 84 106H49c0 40 14 67 53 68 26 1 43-12 49-29l28 8c-11 28-37 45-77 45C44 4 14-33 15-96c1-61 26-98 85-98zm52 81c6-60-76-77-97-28-3 7-6 17-6 28h103"
                  id="al"/>
            <path fill="#333" d="M108 0H70L1-190h34L89-25l56-165h34" id="am"/>
            <path fill="#333" d="M24-231v-30h32v30H24zM24 0v-190h32V0H24" id="an"/>
            <path fill="#333"
                  d="M96-169c-40 0-48 33-48 73s9 75 48 75c24 0 41-14 43-38l32 2c-6 37-31 61-74 61-59 0-76-41-82-99-10-93 101-131 147-64 4 7 5 14 7 22l-32 3c-4-21-16-35-41-35"
                  id="ao"/>
            <g id="l">
                <use transform="matrix(0.05,0,0,0.05,0,0)" xlink:href="#ak"/>
                <use transform="matrix(0.05,0,0,0.05,12,0)" xlink:href="#al"/>
                <use transform="matrix(0.05,0,0,0.05,22,0)" xlink:href="#ai"/>
                <use transform="matrix(0.05,0,0,0.05,27.950000000000003,0)" xlink:href="#am"/>
                <use transform="matrix(0.05,0,0,0.05,36.95,0)" xlink:href="#an"/>
                <use transform="matrix(0.05,0,0,0.05,40.900000000000006,0)" xlink:href="#ao"/>
                <use transform="matrix(0.05,0,0,0.05,49.900000000000006,0)" xlink:href="#al"/>
            </g>
            <g id="m">
                <use transform="matrix(0.05,0,0,0.05,0,0)" xlink:href="#ad"/>
                <use transform="matrix(0.05,0,0,0.05,12.950000000000001,0)" xlink:href="#af"/>
                <use transform="matrix(0.05,0,0,0.05,22.950000000000003,0)" xlink:href="#ag"/>
                <use transform="matrix(0.05,0,0,0.05,31.950000000000003,0)" xlink:href="#ac"/>
                <use transform="matrix(0.05,0,0,0.05,41.95,0)" xlink:href="#ae"/>
                <use transform="matrix(0.05,0,0,0.05,53.95,0)" xlink:href="#ah"/>
                <use transform="matrix(0.05,0,0,0.05,63.95,0)" xlink:href="#af"/>
                <use transform="matrix(0.05,0,0,0.05,73.95,0)" xlink:href="#ai"/>
                <use transform="matrix(0.05,0,0,0.05,79.9,0)" xlink:href="#aj"/>
            </g>
            <path fill="#333" d="M197 0v-115H63V0H30v-248h33v105h134v-105h34V0h-34" id="ap"/>
            <path fill="#333" d="M127-220V0H93v-220H8v-28h204v28h-85" id="aq"/>
            <path fill="#333"
                  d="M30-248c87 1 191-15 191 75 0 78-77 80-158 76V0H30v-248zm33 125c57 0 124 11 124-50 0-59-68-47-124-48v98"
                  id="ar"/>
            <g id="n">
                <use transform="matrix(0.05,0,0,0.05,0,0)" xlink:href="#ap"/>
                <use transform="matrix(0.05,0,0,0.05,12.950000000000001,0)" xlink:href="#aq"/>
                <use transform="matrix(0.05,0,0,0.05,23.900000000000002,0)" xlink:href="#aq"/>
                <use transform="matrix(0.05,0,0,0.05,34.85,0)" xlink:href="#ar"/>
            </g>
            <path fill="#333" d="M33 0v-248h34V0H33" id="as"/>
            <g id="o">
                <use transform="matrix(0.05,0,0,0.05,0,0)" xlink:href="#Z"/>
                <use transform="matrix(0.05,0,0,0.05,12,0)" xlink:href="#ar"/>
                <use transform="matrix(0.05,0,0,0.05,24,0)" xlink:href="#as"/>
            </g>
            <path fill="#333" d="M190 0L58-211 59 0H30v-248h39L202-35l-2-213h31V0h-41" id="at"/>
            <path fill="#333"
                  d="M232-93c-1 65-40 97-104 97C67 4 28-28 28-90v-158h33c8 89-33 224 67 224 102 0 64-133 71-224h33v155"
                  id="au"/>
            <g id="p">
                <use transform="matrix(0.05,0,0,0.05,0,0)" xlink:href="#as"/>
                <use transform="matrix(0.05,0,0,0.05,5,0)" xlink:href="#at"/>
                <use transform="matrix(0.05,0,0,0.05,17.950000000000003,0)" xlink:href="#ar"/>
                <use transform="matrix(0.05,0,0,0.05,29.950000000000003,0)" xlink:href="#au"/>
                <use transform="matrix(0.05,0,0,0.05,42.900000000000006,0)" xlink:href="#aq"/>
            </g>
            <path fill="#333"
                  d="M143 4C61 4 22-44 18-125c-5-107 100-154 193-111 17 8 29 25 37 43l-32 9c-13-25-37-40-76-40-61 0-88 39-88 99 0 61 29 100 91 101 35 0 62-11 79-27v-45h-74v-28h105v86C228-13 192 4 143 4"
                  id="av"/>
            <path fill="#333" d="M30 0v-248h187v28H63v79h144v27H63v87h162V0H30" id="aw"/>
            <path fill="#333" d="M266 0h-40l-56-210L115 0H75L2-248h35L96-30l15-64 43-154h32l59 218 59-218h35" id="ax"/>
            <path fill="#333" d="M137-103V0h-34v-103L8-248h37l75 118 75-118h37" id="ay"/>
            <g id="q">
                <use transform="matrix(0.05,0,0,0.05,0,0)" xlink:href="#av"/>
                <use transform="matrix(0.05,0,0,0.05,14,0)" xlink:href="#Z"/>
                <use transform="matrix(0.05,0,0,0.05,24.65,0)" xlink:href="#aq"/>
                <use transform="matrix(0.05,0,0,0.05,35.6,0)" xlink:href="#aw"/>
                <use transform="matrix(0.05,0,0,0.05,47.6,0)" xlink:href="#ax"/>
                <use transform="matrix(0.05,0,0,0.05,63.900000000000006,0)" xlink:href="#Z"/>
                <use transform="matrix(0.05,0,0,0.05,74.55000000000001,0)" xlink:href="#ay"/>
            </g>
            <path fill="#333"
                  d="M240 0l2-218c-23 76-54 145-80 218h-23L58-218 59 0H30v-248h44l77 211c21-75 51-140 76-211h43V0h-30"
                  id="az"/>
            <g id="r">
                <use transform="matrix(0.05,0,0,0.05,0,0)" xlink:href="#az"/>
                <use transform="matrix(0.05,0,0,0.05,14.950000000000001,0)" xlink:href="#aw"/>
                <use transform="matrix(0.05,0,0,0.05,26.950000000000003,0)" xlink:href="#ak"/>
                <use transform="matrix(0.05,0,0,0.05,38.95,0)" xlink:href="#ak"/>
                <use transform="matrix(0.05,0,0,0.05,50.95,0)" xlink:href="#Z"/>
                <use transform="matrix(0.05,0,0,0.05,62.95,0)" xlink:href="#av"/>
                <use transform="matrix(0.05,0,0,0.05,76.95,0)" xlink:href="#aw"/>
            </g>
            <path fill="#333"
                  d="M233-177c-1 41-23 64-60 70L243 0h-38l-65-103H63V0H30v-248c88 3 205-21 203 71zM63-129c60-2 137 13 137-47 0-61-80-42-137-45v92"
                  id="aA"/>
            <path fill="#333"
                  d="M140-251c81 0 123 46 123 126C263-46 219 4 140 4 59 4 17-45 17-125s42-126 123-126zm0 227c63 0 89-41 89-101s-29-99-89-99c-61 0-89 39-89 99S79-25 140-24"
                  id="aB"/>
            <path fill="#333" d="M194 0L95-120 63-95V0H30v-248h33v124l119-124h40L117-140 236 0h-42" id="aC"/>
            <g id="s">
                <use transform="matrix(0.05,0,0,0.05,0,0)" xlink:href="#ae"/>
                <use transform="matrix(0.05,0,0,0.05,12,0)" xlink:href="#aA"/>
                <use transform="matrix(0.05,0,0,0.05,24.950000000000003,0)" xlink:href="#aB"/>
                <use transform="matrix(0.05,0,0,0.05,38.95,0)" xlink:href="#aC"/>
                <use transform="matrix(0.05,0,0,0.05,50.95,0)" xlink:href="#aw"/>
                <use transform="matrix(0.05,0,0,0.05,62.95,0)" xlink:href="#aA"/>
            </g>
            <path fill="#333"
                  d="M117-194c89-4 53 116 60 194h-32v-121c0-31-8-49-39-48C34-167 62-67 57 0H25l-1-190h30c1 10-1 24 2 32 11-22 29-35 61-36"
                  id="aD"/>
            <path fill="#333"
                  d="M177-190C167-65 218 103 67 71c-23-6-38-20-44-43l32-5c15 47 100 32 89-28v-30C133-14 115 1 83 1 29 1 15-40 15-95c0-56 16-97 71-98 29-1 48 16 59 35 1-10 0-23 2-32h30zM94-22c36 0 50-32 50-73 0-42-14-75-50-75-39 0-46 34-46 75s6 73 46 73"
                  id="aE"/>
            <g id="t">
                <use transform="matrix(0.05,0,0,0.05,0,0)" xlink:href="#Z"/>
                <use transform="matrix(0.05,0,0,0.05,12,0)" xlink:href="#ao"/>
                <use transform="matrix(0.05,0,0,0.05,21,0)" xlink:href="#ao"/>
                <use transform="matrix(0.05,0,0,0.05,30,0)" xlink:href="#ah"/>
                <use transform="matrix(0.05,0,0,0.05,40,0)" xlink:href="#aa"/>
                <use transform="matrix(0.05,0,0,0.05,50,0)" xlink:href="#aD"/>
                <use transform="matrix(0.05,0,0,0.05,60,0)" xlink:href="#ab"/>
                <use transform="matrix(0.05,0,0,0.05,65,0)" xlink:href="#an"/>
                <use transform="matrix(0.05,0,0,0.05,68.95,0)" xlink:href="#aD"/>
                <use transform="matrix(0.05,0,0,0.05,78.95,0)" xlink:href="#aE"/>
            </g>
            <path fill="#333" d="M24 0v-261h32V0H24" id="aF"/>
            <path fill="#333" d="M179-190L93 31C79 59 56 82 12 73V49c39 6 53-20 64-50L1-190h34L92-34l54-156h33"
                  id="aG"/>
            <g id="u">
                <use transform="matrix(0.05,0,0,0.05,0,0)" xlink:href="#Z"/>
                <use transform="matrix(0.05,0,0,0.05,12,0)" xlink:href="#aD"/>
                <use transform="matrix(0.05,0,0,0.05,22,0)" xlink:href="#af"/>
                <use transform="matrix(0.05,0,0,0.05,32,0)" xlink:href="#aF"/>
                <use transform="matrix(0.05,0,0,0.05,35.95,0)" xlink:href="#aG"/>
                <use transform="matrix(0.05,0,0,0.05,44.95,0)" xlink:href="#ab"/>
                <use transform="matrix(0.05,0,0,0.05,49.95,0)" xlink:href="#an"/>
                <use transform="matrix(0.05,0,0,0.05,53.900000000000006,0)" xlink:href="#ao"/>
                <use transform="matrix(0.05,0,0,0.05,62.900000000000006,0)" xlink:href="#ag"/>
            </g>
            <g id="v">
                <use transform="matrix(0.05,0,0,0.05,0,0)" xlink:href="#ad"/>
                <use transform="matrix(0.05,0,0,0.05,12.950000000000001,0)" xlink:href="#ae"/>
            </g>
        </defs>
    </g>
</svg>
